<svg xmlns="http://www.w3.org/2000/svg" width="416" height="176" class="svgbob">
  <style>.svgbob line, .svgbob path, .svgbob circle, .svgbob rect, .svgbob polygon {
  stroke: black;
  stroke-width: 2;
  stroke-opacity: 1;
  fill-opacity: 1;
  stroke-linecap: round;
  stroke-linejoin: miter;
}

.svgbob text {
  white-space: pre;
  fill: black;
  font-family: Iosevka Fixed, monospace;
  font-size: 14px;
}

.svgbob rect.backdrop {
  stroke: none;
  fill: white;
}

.svgbob .broken {
  stroke-dasharray: 8;
}

.svgbob .filled {
  fill: black;
}

.svgbob .bg_filled {
  fill: white;
  stroke-width: 1;
}

.svgbob .nofill {
  fill: white;
}

.svgbob .end_marked_arrow {
  marker-end: url(#arrow);
}

.svgbob .start_marked_arrow {
  marker-start: url(#arrow);
}

.svgbob .end_marked_diamond {
  marker-end: url(#diamond);
}

.svgbob .start_marked_diamond {
  marker-start: url(#diamond);
}

.svgbob .end_marked_circle {
  marker-end: url(#circle);
}

.svgbob .start_marked_circle {
  marker-start: url(#circle);
}

.svgbob .end_marked_open_circle {
  marker-end: url(#open_circle);
}

.svgbob .start_marked_open_circle {
  marker-start: url(#open_circle);
}

.svgbob .end_marked_big_open_circle {
  marker-end: url(#big_open_circle);
}

.svgbob .start_marked_big_open_circle {
  marker-start: url(#big_open_circle);
}

</style>
  <defs>
    <marker id="arrow" viewBox="-2 -2 8 8" refX="4" refY="2" markerWidth="7" markerHeight="7" orient="auto-start-reverse">
      <polygon points="0,0 0,4 4,2 0,0"></polygon>
    </marker>
    <marker id="diamond" viewBox="-2 -2 8 8" refX="4" refY="2" markerWidth="7" markerHeight="7" orient="auto-start-reverse">
      <polygon points="0,2 2,0 4,2 2,4 0,2"></polygon>
    </marker>
    <marker id="circle" viewBox="0 0 8 8" refX="4" refY="4" markerWidth="7" markerHeight="7" orient="auto-start-reverse">
      <circle cx="4" cy="4" r="2" class="filled"></circle>
    </marker>
    <marker id="open_circle" viewBox="0 0 8 8" refX="4" refY="4" markerWidth="7" markerHeight="7" orient="auto-start-reverse">
      <circle cx="4" cy="4" r="2" class="bg_filled"></circle>
    </marker>
    <marker id="big_open_circle" viewBox="0 0 8 8" refX="4" refY="4" markerWidth="7" markerHeight="7" orient="auto-start-reverse">
      <circle cx="4" cy="4" r="3" class="bg_filled"></circle>
    </marker>
  </defs>
  <rect class="backdrop" x="0" y="0" width="416" height="176"></rect>
  <rect x="300" y="8" width="104" height="64" class="solid nofill" rx="4"></rect>
  <text x="306" y="44" >destination</text>
  <text x="82" y="28" >time</text>
  <text x="146" y="28" >perfectly</text>
  <text x="242" y="28" >time</text>
  <text x="10" y="44" >source</text>
  <polygon points="128,36 136,40 128,44" class="filled"></polygon>
  <text x="154" y="44" >private</text>
  <polygon points="288,36 296,40 288,44" class="filled"></polygon>
  <text x="82" y="60" >value</text>
  <text x="170" y="60" >SoV</text>
  <text x="242" y="60" >value</text>
  <polygon points="208,92 212,80 216,92" class="filled"></polygon>
  <text x="146" y="140" >nothing</text>
  <text x="210" y="140" >to</text>
  <text x="154" y="156" >see</text>
  <text x="186" y="156" >here</text>
  <g>
    <path d="M 8,8 A 4,4 0,0,0 4,12" class="nofill"></path>
    <line x1="4" y1="12" x2="4" y2="68" class="solid"></line>
    <line x1="8" y1="8" x2="64" y2="8" class="solid"></line>
    <path d="M 64,8 A 4,4 0,0,1 68,12" class="nofill"></path>
    <line x1="68" y1="12" x2="68" y2="68" class="solid"></line>
    <line x1="68" y1="40" x2="128" y2="40" class="solid"></line>
    <path d="M 4,68 A 4,4 0,0,0 8,72" class="nofill"></path>
    <line x1="8" y1="72" x2="64" y2="72" class="solid"></line>
    <path d="M 68,68 A 4,4 0,0,1 64,72" class="nofill"></path>
  </g>
  <g>
    <path d="M 144,8 A 4,4 0,0,0 140,12" class="nofill"></path>
    <line x1="140" y1="12" x2="140" y2="68" class="solid"></line>
    <line x1="144" y1="8" x2="224" y2="8" class="solid"></line>
    <path d="M 224,8 A 4,4 0,0,1 228,12" class="nofill"></path>
    <line x1="228" y1="12" x2="228" y2="68" class="solid"></line>
    <line x1="228" y1="40" x2="288" y2="40" class="solid"></line>
    <path d="M 140,68 A 4,4 0,0,0 144,72" class="nofill"></path>
    <line x1="144" y1="72" x2="224" y2="72" class="solid"></line>
    <line x1="156" y1="72" x2="156" y2="112" class="solid"></line>
    <path d="M 228,68 A 4,4 0,0,1 224,72" class="nofill"></path>
    <path d="M 156,112 A 8,8 0,0,0 164,120" class="nofill"></path>
    <line x1="164" y1="120" x2="208" y2="120" class="solid"></line>
    <line x1="212" y1="92" x2="212" y2="116" class="solid"></line>
    <path d="M 212,116 A 4,4 0,0,1 208,120" class="nofill"></path>
  </g>
</svg>